<?xml version="1.0" encoding="UTF-8" standalone="no"?>
<!DOCTYPE svg PUBLIC "-//W3C//DTD SVG 1.1//EN" "http://www.w3.org/Graphics/SVG/1.1/DTD/svg11.dtd">
<svg width="100%" height="100%" viewBox="0 0 1267 424" version="1.1" xmlns="http://www.w3.org/2000/svg" xmlns:xlink="http://www.w3.org/1999/xlink" xml:space="preserve" xmlns:serif="http://www.serif.com/" style="fill-rule:evenodd;clip-rule:evenodd;stroke-linejoin:round;stroke-miterlimit:1.41421;">
    <g id="Artboard1" transform="matrix(1,0,0,1,-70.4615,-206.212)">
        <rect x="70.461" y="206.212" width="1266.08" height="423.081" style="fill:none;"/>
        <clipPath id="_clip1">
            <rect x="70.461" y="206.212" width="1266.08" height="423.081"/>
        </clipPath>
        <g clip-path="url(#_clip1)">
            <g id="The-Pitwall" serif:id="The Pitwall" transform="matrix(1.24967,0,0,1.24967,-542.113,629.506)">
                <g>
                    <g transform="matrix(1,0,0,1,487.588,-183.186)">
                        <path d="M5.723,-148.615L5.723,-155.37L107.051,-155.37L107.051,-148.615L5.723,-148.615ZM5.723,-135.104L5.723,-141.86L107.051,-141.86L107.051,-135.104L5.723,-135.104ZM5.723,-121.594L5.723,-128.349L107.051,-128.349L107.051,-121.594L80.031,-121.594L80.031,0L73.275,0L73.275,-121.594L66.52,-121.594L66.52,0L59.765,0L59.765,-121.594L53.01,-121.594L53.01,0L46.254,0L46.254,-121.594L39.499,-121.594L39.499,0L32.744,0L32.744,-121.594L5.723,-121.594Z" style="fill:white;fill-rule:nonzero;"/>
                    </g>
                    <g transform="matrix(1,0,0,1,487.588,-183.186)">
                        <path d="M280.567,-155.37L287.322,-155.37L287.322,0L280.567,0L280.567,-155.37ZM131.952,-155.37L138.707,-155.37L138.707,0L131.952,0L131.952,-155.37ZM267.056,-155.37L273.812,-155.37L273.812,0L267.056,0L267.056,-155.37ZM253.546,-155.37L260.301,-155.37L260.301,0L253.546,0L253.546,-155.37ZM240.036,-155.37L246.791,-155.37L246.791,0L240.036,0L240.036,-60.891L179.239,-60.891L179.239,0L172.483,0L172.483,-155.37L179.239,-155.37L179.239,-94.667L240.036,-94.667L240.036,-155.37ZM158.973,-155.37L165.728,-155.37L165.728,0L158.973,0L158.973,-155.37ZM145.462,-155.37L152.218,-155.37L152.218,0L145.462,0L145.462,-155.37ZM240.036,-67.646L240.036,-74.401L179.239,-74.401L179.239,-67.646L240.036,-67.646ZM240.036,-81.156L240.036,-87.912L179.239,-87.912L179.239,-81.156L240.036,-81.156Z" style="fill:white;fill-rule:nonzero;"/>
                    </g>
                    <g transform="matrix(1,0,0,1,487.588,-183.186)">
                        <path d="M348.532,0L341.777,0L341.777,-155.37L348.532,-155.37L348.532,0ZM335.021,0L328.266,0L328.266,-155.37L335.021,-155.37L335.021,0ZM321.511,0L314.756,0L314.756,-155.37L321.511,-155.37L321.511,0ZM362.042,-33.776L433.91,-33.776L433.91,-27.021L362.042,-27.021L362.042,-20.266L433.91,-20.266L433.91,-13.51L362.042,-13.51L362.042,-6.755L433.91,-6.755L433.91,0L355.287,0L355.287,-155.37L433.91,-155.37L433.91,-148.615L362.042,-148.615L362.042,-141.86L433.91,-141.86L433.91,-135.104L362.042,-135.104L362.042,-128.349L433.91,-128.349L433.91,-121.594L362.042,-121.594L362.042,-94.573L398.915,-94.573L398.915,-87.818L362.042,-87.818L362.042,-81.063L398.915,-81.063L398.915,-74.307L362.042,-74.307L362.042,-67.552L398.915,-67.552L398.915,-60.797L362.042,-60.797L362.042,-33.776Z" style="fill:white;fill-rule:nonzero;"/>
                    </g>
                </g>
                <g>
                    <path d="M543.101,-73.557L582.319,-73.557C588.761,-73.557 594.219,-75.73 598.691,-80.078C603.163,-84.425 605.399,-90.57 605.399,-98.514C605.399,-104.456 603.054,-109.788 598.362,-114.51C593.671,-119.233 588.323,-121.594 582.319,-121.594L524.336,-121.594L524.336,0L517.581,0L517.581,-128.349L582.319,-128.349C590.2,-128.349 597.143,-125.316 603.147,-119.248C609.152,-113.181 612.154,-106.27 612.154,-98.514C612.154,-88.944 609.246,-81.266 603.429,-75.48C597.612,-69.694 590.575,-66.802 582.319,-66.802L543.101,-66.802L543.101,-73.557ZM543.101,-60.046L582.319,-60.046C588.824,-60.046 594.844,-61.626 600.38,-64.784C605.915,-67.943 610.387,-72.494 613.796,-78.436C617.205,-84.378 618.91,-91.07 618.91,-98.514C618.91,-108.146 615.235,-116.653 607.885,-124.033C600.536,-131.414 592.014,-135.104 582.319,-135.104L510.826,-135.104L510.826,0L504.071,0L504.071,-141.86L582.319,-141.86C589.887,-141.86 597.018,-139.858 603.71,-135.855C610.403,-131.852 615.735,-126.504 619.707,-119.811C623.679,-113.119 625.665,-106.019 625.665,-98.514C625.665,-90.007 623.663,-82.267 619.66,-75.293C615.657,-68.318 610.356,-62.908 603.757,-59.061C597.158,-55.215 590.012,-53.291 582.319,-53.291L543.101,-53.291L543.101,-60.046ZM543.101,-46.536L582.319,-46.536C589.011,-46.536 595.423,-47.865 601.552,-50.523C607.682,-53.182 613.014,-56.778 617.549,-61.313C622.084,-65.848 625.696,-71.352 628.386,-77.826C631.075,-84.3 632.42,-91.195 632.42,-98.514C632.42,-107.27 630.137,-115.511 625.571,-123.236C621.005,-130.961 614.86,-137.122 607.135,-141.719C599.41,-146.316 591.138,-148.615 582.319,-148.615L497.316,-148.615L497.316,0L490.56,0L490.56,-155.37L582.319,-155.37C592.327,-155.37 601.709,-152.759 610.466,-147.536C619.222,-142.313 626.196,-135.323 631.388,-126.567C636.579,-117.81 639.175,-108.459 639.175,-98.514C639.175,-89.632 637.643,-81.454 634.578,-73.979C631.513,-66.505 627.385,-60.297 622.193,-55.355C617.002,-50.414 610.966,-46.583 604.086,-43.862C597.205,-41.141 589.95,-39.781 582.319,-39.781L543.101,-39.781L543.101,-46.536ZM537.847,0L531.092,0L531.092,-114.839L582.319,-114.839C586.76,-114.839 590.591,-113.212 593.812,-109.96C597.033,-106.707 598.644,-102.892 598.644,-98.514C598.644,-86.379 593.202,-80.312 582.319,-80.312L543.101,-80.312L543.101,-87.067L582.319,-87.067C585.321,-87.067 587.667,-87.912 589.355,-89.6C591.044,-91.289 591.889,-94.26 591.889,-98.514C591.889,-101.266 590.966,-103.549 589.121,-105.363C587.276,-107.177 585.008,-108.084 582.319,-108.084L537.847,-108.084L537.847,0Z" style="fill:white;fill-rule:nonzero;"/>
                    <path d="M704.138,-155.37L710.893,-155.37L710.893,0L704.138,0L704.138,-155.37ZM690.627,-155.37L697.383,-155.37L697.383,0L690.627,0L690.627,-155.37ZM677.117,-155.37L683.872,-155.37L683.872,0L677.117,0L677.117,-155.37ZM663.607,-155.37L670.362,-155.37L670.362,0L663.607,0L663.607,-155.37Z" style="fill:white;fill-rule:nonzero;"/>
                    <path d="M735.325,-148.615L735.325,-155.37L836.653,-155.37L836.653,-148.615L735.325,-148.615ZM735.325,-135.104L735.325,-141.86L836.653,-141.86L836.653,-135.104L735.325,-135.104ZM735.325,-121.594L735.325,-128.349L836.653,-128.349L836.653,-121.594L809.632,-121.594L809.632,0L802.877,0L802.877,-121.594L796.122,-121.594L796.122,0L789.366,0L789.366,-121.594L782.611,-121.594L782.611,0L775.856,0L775.856,-121.594L769.101,-121.594L769.101,0L762.345,0L762.345,-121.594L735.325,-121.594Z" style="fill:white;fill-rule:nonzero;"/>
                    <path d="M906.025,-47.756L902.835,-34.433L870.748,-155.37L877.691,-155.37L906.025,-47.756ZM913.062,-73.744L909.59,-60.797L884.728,-155.37L891.577,-155.37L913.062,-73.744ZM920.099,-100.672L916.533,-87.536L898.613,-155.37L905.65,-155.37L920.099,-100.672ZM946.838,0L939.801,0L980.896,-155.182L980.802,-155.37L987.932,-155.37L987.932,-155.182L1006.23,-92.134L1023.02,-155.37L1030.06,-155.37L988.87,0L981.834,0L963.445,-62.955L946.838,0ZM932.765,0L925.822,0L966.916,-155.37L973.859,-155.37L932.765,0ZM918.785,0L911.842,0L953.03,-155.37L959.879,-155.37L918.785,0ZM1030.9,0L1023.87,0L1064.96,-155.37L1072,-155.37L1030.9,0ZM1016.83,0L1009.89,0L1050.98,-155.37L1057.92,-155.37L1016.83,0ZM1002.85,0L995.907,0L1037.1,-155.37L1043.94,-155.37L1002.85,0ZM901.334,-13.323L938.957,-155.37L945.994,-155.37L904.806,0L897.769,0L856.675,-155.37L863.711,-155.37L901.334,-13.323ZM967.01,-76.184L985.211,-12.76L988.777,-26.176L970.481,-89.413L967.01,-76.184ZM973.953,-102.642L992.248,-39.405L995.813,-52.634L977.518,-115.965L973.953,-102.642ZM980.896,-128.912L999.285,-65.676L1002.76,-78.999L984.555,-142.423L980.896,-128.912Z" style="fill:white;fill-rule:nonzero;"/>
                    <path d="M1154.04,-45.598L1156.76,-52.353L1179.84,-52.353L1182.56,-45.598L1154.04,-45.598ZM1148.78,-32.087L1151.41,-38.843L1185.09,-38.843L1188,-32.087L1148.78,-32.087ZM1143.53,-18.577L1146.15,-25.332L1190.44,-25.332L1193.25,-18.577L1143.53,-18.577ZM1088.64,0L1081.32,0L1142.78,-155.37L1150.1,-155.37L1211.45,0L1204.23,0L1146.44,-146.269L1088.64,0ZM1147.28,-130.226L1151.13,-121.594L1103.09,0L1095.87,0L1147.28,-130.226ZM1154.79,-112.399L1158.35,-103.111L1117.73,0L1110.41,0L1154.79,-112.399ZM1161.92,-93.823L1165.48,-84.346L1132.17,0L1124.95,0L1161.92,-93.823ZM1255.08,0L1247.76,0L1186.4,-155.37L1193.63,-155.37L1255.08,0ZM1179.09,-155.37L1240.54,0L1233.32,0L1171.86,-155.37L1179.09,-155.37ZM1164.54,-155.37L1226,0L1218.68,0L1157.32,-155.37L1164.54,-155.37Z" style="fill:white;fill-rule:nonzero;"/>
                    <path d="M1276.51,-155.37L1283.27,-155.37L1283.27,0L1276.51,0L1276.51,-155.37ZM1317.04,-155.37L1323.8,-155.37L1323.8,-33.776L1377.84,-33.776L1377.84,-27.021L1323.8,-27.021L1323.8,-20.266L1377.84,-20.266L1377.84,-13.51L1323.8,-13.51L1323.8,-6.755L1377.84,-6.755L1377.84,0L1317.04,0L1317.04,-155.37ZM1303.53,-155.37L1310.29,-155.37L1310.29,0L1303.53,0L1303.53,-155.37ZM1290.02,-155.37L1296.78,-155.37L1296.78,0L1290.02,0L1290.02,-155.37Z" style="fill:white;fill-rule:nonzero;"/>
                    <path d="M1402.37,-155.37L1409.12,-155.37L1409.12,0L1402.37,0L1402.37,-155.37ZM1442.9,-155.37L1449.65,-155.37L1449.65,-33.776L1503.69,-33.776L1503.69,-27.021L1449.65,-27.021L1449.65,-20.266L1503.69,-20.266L1503.69,-13.51L1449.65,-13.51L1449.65,-6.755L1503.69,-6.755L1503.69,0L1442.9,0L1442.9,-155.37ZM1429.39,-155.37L1436.14,-155.37L1436.14,0L1429.39,0L1429.39,-155.37ZM1415.88,-155.37L1422.63,-155.37L1422.63,0L1415.88,0L1415.88,-155.37Z" style="fill:white;fill-rule:nonzero;"/>
                </g>
            </g>
        </g>
    </g>
</svg>
