<?xml version="1.0" encoding="UTF-8" standalone="no"?>
<!DOCTYPE svg PUBLIC "-//W3C//DTD SVG 1.1//EN" "http://www.w3.org/Graphics/SVG/1.1/DTD/svg11.dtd">
<svg width="100%" height="100%" viewBox="0 0 64 64" version="1.1" xmlns="http://www.w3.org/2000/svg" xmlns:xlink="http://www.w3.org/1999/xlink" xml:space="preserve" xmlns:serif="http://www.serif.com/" style="fill-rule:evenodd;clip-rule:evenodd;stroke-linejoin:round;stroke-miterlimit:1.41421;">
    <path d="M32.296,7L32.296,0L44.572,10.292L32.296,20.585L32.296,13.273C32.213,13.272 32.13,13.271 32.047,13.271C21.338,13.373 11.892,23.961 13.491,34.837C14.796,43.71 23.242,50.954 32.293,50.897C42.079,50.835 50.798,41.864 51,32L57.295,32C57.155,41.741 51.048,51.365 41.964,55.196C30.283,60.123 15.199,54.591 9.549,43.092C2.28,28.3 13.397,7.409 31.683,7.005C31.887,7.001 32.092,7 32.296,7Z" style="fill:rgb(142,0,0);fill-rule:nonzero;"/>
</svg>
