<?xml version="1.0" encoding="UTF-8" standalone="no"?>
<!DOCTYPE svg PUBLIC "-//W3C//DTD SVG 1.1//EN" "http://www.w3.org/Graphics/SVG/1.1/DTD/svg11.dtd">
<svg width="100%" height="100%" viewBox="0 0 1172 1172" version="1.1" xmlns="http://www.w3.org/2000/svg" xmlns:xlink="http://www.w3.org/1999/xlink" xml:space="preserve" xmlns:serif="http://www.serif.com/" style="fill-rule:evenodd;clip-rule:evenodd;stroke-linejoin:round;stroke-miterlimit:1.41421;">
    <g id="Artboard1" transform="matrix(1,0,0,1,-108,-118)">
        <rect x="108" y="118" width="1172" height="1172" style="fill:none;"/>
        <path d="M694,118C1017.42,118 1280,380.578 1280,704C1280,1027.42 1017.42,1290 694,1290C370.578,1290 108,1027.42 108,704C108,380.578 370.578,118 694,118ZM694,406C858.471,406 992,539.529 992,704C992,868.471 858.471,1002 694,1002C529.529,1002 396,868.471 396,704C396,539.529 529.529,406 694,406Z" style="fill:url(#_Radial1);"/>
        <path d="M694,406C858.471,406 992,539.529 992,704C992,868.471 858.471,1002 694,1002C529.529,1002 396,868.471 396,704C396,539.529 529.529,406 694,406ZM852.881,914.796L743.685,782.611C732.988,789.391 720.815,794.047 707.761,795.987L723.982,966.313C772.028,960.871 816.181,942.512 852.881,914.796ZM529.535,910.461C565.324,939.017 608.691,958.469 656.115,965.297L672.384,794.47C659.922,791.499 648.43,786.017 638.472,778.589L529.535,910.461ZM955.693,739.018L785.101,722.772C782.434,735.763 777.054,747.769 769.581,758.173L901.503,867.152C930.06,830.893 949.325,786.98 955.693,739.018ZM431.768,734.689C437.263,782.063 455.32,825.631 482.518,861.97L614.779,752.71C608.45,742.445 604.059,730.859 602.121,718.465L431.768,734.689ZM903.004,542.773L770.983,651.834C778.09,662.296 783.121,674.28 785.482,687.192L955.948,670.957C949.958,623.073 931.122,579.157 903.004,542.773ZM485.876,541.64C457.977,577.341 439.056,620.392 432.524,667.383L603.239,683.642C605.933,671.598 610.966,660.433 617.835,650.649L485.876,541.64ZM727.748,442.141L711.51,612.649C724.072,615.046 735.741,619.974 745.965,626.881L855.036,494.848C818.868,466.95 775.275,448.217 727.748,442.141ZM660.252,442.141C613.037,448.177 569.704,466.704 533.677,494.301L642.785,626.379C652.829,619.735 664.235,614.988 676.49,612.649L660.252,442.141Z" style="fill:rgb(155,155,155);"/>
    </g>
    <defs>
        <radialGradient id="_Radial1" cx="0" cy="0" r="1" gradientUnits="userSpaceOnUse" gradientTransform="matrix(576,0,0,576,708,718)"><stop offset="0" style="stop-color:rgb(36,36,36);stop-opacity:1"/><stop offset="0.49" style="stop-color:rgb(43,43,43);stop-opacity:1"/><stop offset="0.66" style="stop-color:rgb(60,60,60);stop-opacity:1"/><stop offset="0.8" style="stop-color:rgb(79,79,79);stop-opacity:1"/><stop offset="1" style="stop-color:rgb(25,25,25);stop-opacity:1"/></radialGradient>
    </defs>
</svg>
